<svg width="37" height="37" viewBox="0 0 37 37" fill="none" xmlns="http://www.w3.org/2000/svg">
<rect width="36.5983" height="36.5983" rx="6" fill="#E8D44C"/>
<path d="M20.4964 21.9238H22.4759V28.5748C22.4759 29.1863 22.3395 29.7273 22.0668 30.198C21.7984 30.6643 21.4179 31.025 20.9253 31.2801C20.4326 31.5353 19.8761 31.6628 19.2559 31.6628C18.2398 31.6628 17.448 31.4055 16.8805 30.8908C16.3131 30.3718 16.0294 29.6394 16.0294 28.6936H18.022C18.022 29.1643 18.121 29.5118 18.319 29.7361C18.5169 29.9605 18.8292 30.0726 19.2559 30.0726C19.6342 30.0726 19.9355 29.9429 20.1599 29.6833C20.3842 29.4238 20.4964 29.0543 20.4964 28.5748V21.9238Z" fill="#31322F"/>
<path d="M28.8608 29.0037C28.8608 28.643 28.7596 28.3571 28.5572 28.146C28.3593 27.9304 28.0206 27.7325 27.5411 27.5521C27.0616 27.3718 26.6482 27.1936 26.3006 27.0177C25.9531 26.8373 25.654 26.6328 25.4033 26.404C25.1569 26.1709 24.9634 25.8982 24.8226 25.5858C24.6863 25.2735 24.6181 24.9018 24.6181 24.4707C24.6181 23.7273 24.8556 23.1181 25.3307 22.643C25.8058 22.1679 26.437 21.8908 27.2244 21.8116V20.3996H28.2801V21.8314C29.0587 21.9414 29.668 22.2669 30.1078 22.808C30.5477 23.3446 30.7677 24.0418 30.7677 24.8996H28.8608C28.8608 24.3718 28.7508 23.9781 28.5309 23.7185C28.3153 23.4546 28.025 23.3226 27.6599 23.3226C27.2992 23.3226 27.0199 23.426 26.8219 23.6328C26.624 23.8351 26.525 24.1166 26.525 24.4773C26.525 24.8116 26.6218 25.08 26.8153 25.2823C27.0089 25.4847 27.3674 25.6914 27.8908 25.9026C28.4187 26.1137 28.852 26.3138 29.1907 26.503C29.5294 26.6878 29.8153 26.8989 30.0485 27.1364C30.2816 27.3696 30.4597 27.6379 30.5829 27.9414C30.7061 28.2405 30.7677 28.5902 30.7677 28.9905C30.7677 29.7383 30.5345 30.3454 30.0682 30.8117C29.602 31.2779 28.9597 31.5529 28.1416 31.6364V32.9495H27.0924V31.643C26.1907 31.5463 25.4913 31.2274 24.9942 30.6863C24.5015 30.1408 24.2552 29.4172 24.2552 28.5155H26.1621C26.1621 29.0389 26.2853 29.4414 26.5316 29.7229C26.7823 30.0001 27.1408 30.1386 27.6071 30.1386C27.9942 30.1386 28.2999 30.0375 28.5243 29.8351C28.7486 29.6284 28.8608 29.3512 28.8608 29.0037Z" fill="#5F962A"/>
</svg>
