<svg width="465" height="720" viewBox="0 0 465 720" fill="none" xmlns="http://www.w3.org/2000/svg">
<g opacity="0.05">
<rect x="248" width="32" height="32" rx="6" fill="#C4C4C4"/>
<rect x="288" width="32" height="32" rx="6" fill="#C4C4C4"/>
<rect x="248" y="40" width="32" height="32" rx="6" fill="#C4C4C4"/>
<rect x="288" y="40" width="32" height="32" rx="6" fill="#C4C4C4"/>
</g>
<g opacity="0.05">
<rect x="8" width="32" height="32" rx="6" fill="#C4C4C4"/>
<rect x="48" width="32" height="32" rx="6" fill="#C4C4C4"/>
<rect x="8" y="40" width="32" height="32" rx="6" fill="#C4C4C4"/>
<rect x="48" y="40" width="32" height="32" rx="6" fill="#C4C4C4"/>
</g>
<g opacity="0.05">
<rect x="328" width="32" height="32" rx="6" fill="#C4C4C4"/>
<rect x="368" width="32" height="32" rx="6" fill="#C4C4C4"/>
<rect x="328" y="40" width="32" height="32" rx="6" fill="#C4C4C4"/>
<rect x="368" y="40" width="32" height="32" rx="6" fill="#C4C4C4"/>
</g>
<g opacity="0.05">
<rect x="88" width="32" height="32" rx="6" fill="#C4C4C4"/>
<rect x="128" width="32" height="32" rx="6" fill="#C4C4C4"/>
<rect x="88" y="40" width="32" height="32" rx="6" fill="#C4C4C4"/>
<rect x="128" y="40" width="32" height="32" rx="6" fill="#C4C4C4"/>
</g>
<g opacity="0.05">
<rect x="408" width="32" height="32" rx="6" fill="#C4C4C4"/>
<rect x="448" width="32" height="32" rx="6" fill="#C4C4C4"/>
<rect x="408" y="40" width="32" height="32" rx="6" fill="#C4C4C4"/>
<rect x="448" y="40" width="32" height="32" rx="6" fill="#C4C4C4"/>
</g>
<g opacity="0.05">
<rect x="168" width="32" height="32" rx="6" fill="#C4C4C4"/>
<rect x="208" width="32" height="32" rx="6" fill="#C4C4C4"/>
<rect x="168" y="40" width="32" height="32" rx="6" fill="#C4C4C4"/>
<rect x="208" y="40" width="32" height="32" rx="6" fill="#C4C4C4"/>
</g>
<g opacity="0.05">
<rect x="248" y="80" width="32" height="32" rx="6" fill="#C4C4C4"/>
<rect x="288" y="80" width="32" height="32" rx="6" fill="#C4C4C4"/>
<rect x="248" y="120" width="32" height="32" rx="6" fill="#C4C4C4"/>
<rect x="288" y="120" width="32" height="32" rx="6" fill="#C4C4C4"/>
</g>
<g opacity="0.05">
<rect x="8" y="80" width="32" height="32" rx="6" fill="#C4C4C4"/>
<rect x="48" y="80" width="32" height="32" rx="6" fill="#C4C4C4"/>
<rect x="8" y="120" width="32" height="32" rx="6" fill="#C4C4C4"/>
<rect x="48" y="120" width="32" height="32" rx="6" fill="#C4C4C4"/>
</g>
<g opacity="0.05">
<rect x="328" y="80" width="32" height="32" rx="6" fill="#C4C4C4"/>
<rect x="368" y="80" width="32" height="32" rx="6" fill="#C4C4C4"/>
<rect x="328" y="120" width="32" height="32" rx="6" fill="#C4C4C4"/>
<rect x="368" y="120" width="32" height="32" rx="6" fill="#C4C4C4"/>
</g>
<g opacity="0.05">
<rect x="88" y="80" width="32" height="32" rx="6" fill="#C4C4C4"/>
<rect x="128" y="80" width="32" height="32" rx="6" fill="#C4C4C4"/>
<rect x="88" y="120" width="32" height="32" rx="6" fill="#C4C4C4"/>
<rect x="128" y="120" width="32" height="32" rx="6" fill="#C4C4C4"/>
</g>
<g opacity="0.05">
<rect x="408" y="80" width="32" height="32" rx="6" fill="#C4C4C4"/>
<rect x="448" y="80" width="32" height="32" rx="6" fill="#C4C4C4"/>
<rect x="408" y="120" width="32" height="32" rx="6" fill="#C4C4C4"/>
<rect x="448" y="120" width="32" height="32" rx="6" fill="#C4C4C4"/>
</g>
<g opacity="0.05">
<rect x="168" y="80" width="32" height="32" rx="6" fill="#C4C4C4"/>
<rect x="208" y="80" width="32" height="32" rx="6" fill="#C4C4C4"/>
<rect x="168" y="120" width="32" height="32" rx="6" fill="#C4C4C4"/>
<rect x="208" y="120" width="32" height="32" rx="6" fill="#C4C4C4"/>
</g>
<g opacity="0.05">
<rect x="248" y="160" width="32" height="32" rx="6" fill="#C4C4C4"/>
<rect x="288" y="160" width="32" height="32" rx="6" fill="#C4C4C4"/>
<rect x="248" y="200" width="32" height="32" rx="6" fill="#C4C4C4"/>
<rect x="288" y="200" width="32" height="32" rx="6" fill="#C4C4C4"/>
</g>
<g opacity="0.05">
<rect x="8" y="160" width="32" height="32" rx="6" fill="#C4C4C4"/>
<rect x="48" y="160" width="32" height="32" rx="6" fill="#C4C4C4"/>
<rect x="8" y="200" width="32" height="32" rx="6" fill="#C4C4C4"/>
<rect x="48" y="200" width="32" height="32" rx="6" fill="#C4C4C4"/>
</g>
<g opacity="0.05">
<rect x="328" y="160" width="32" height="32" rx="6" fill="#C4C4C4"/>
<rect x="368" y="160" width="32" height="32" rx="6" fill="#C4C4C4"/>
<rect x="328" y="200" width="32" height="32" rx="6" fill="#C4C4C4"/>
<rect x="368" y="200" width="32" height="32" rx="6" fill="#C4C4C4"/>
</g>
<g opacity="0.05">
<rect x="88" y="160" width="32" height="32" rx="6" fill="#C4C4C4"/>
<rect x="128" y="160" width="32" height="32" rx="6" fill="#C4C4C4"/>
<rect x="88" y="200" width="32" height="32" rx="6" fill="#C4C4C4"/>
<rect x="128" y="200" width="32" height="32" rx="6" fill="#C4C4C4"/>
</g>
<g opacity="0.05">
<rect x="408" y="160" width="32" height="32" rx="6" fill="#C4C4C4"/>
<rect x="448" y="160" width="32" height="32" rx="6" fill="#C4C4C4"/>
<rect x="408" y="200" width="32" height="32" rx="6" fill="#C4C4C4"/>
<rect x="448" y="200" width="32" height="32" rx="6" fill="#C4C4C4"/>
</g>
<g opacity="0.05">
<rect x="168" y="160" width="32" height="32" rx="6" fill="#C4C4C4"/>
<rect x="208" y="160" width="32" height="32" rx="6" fill="#C4C4C4"/>
<rect x="168" y="200" width="32" height="32" rx="6" fill="#C4C4C4"/>
<rect x="208" y="200" width="32" height="32" rx="6" fill="#C4C4C4"/>
</g>
<rect y="-3" width="480" height="258" fill="url(#paint0_linear)"/>
<g opacity="0.05">
<rect x="248" y="241" width="32" height="32" rx="6" fill="#C4C4C4"/>
<rect x="288" y="241" width="32" height="32" rx="6" fill="#C4C4C4"/>
<rect x="248" y="281" width="32" height="32" rx="6" fill="#C4C4C4"/>
<rect x="288" y="281" width="32" height="32" rx="6" fill="#C4C4C4"/>
</g>
<g opacity="0.05">
<rect x="8" y="241" width="32" height="32" rx="6" fill="#C4C4C4"/>
<rect x="48" y="241" width="32" height="32" rx="6" fill="#C4C4C4"/>
<rect x="8" y="281" width="32" height="32" rx="6" fill="#C4C4C4"/>
<rect x="48" y="281" width="32" height="32" rx="6" fill="#C4C4C4"/>
</g>
<g opacity="0.05">
<rect x="328" y="241" width="32" height="32" rx="6" fill="#C4C4C4"/>
<rect x="368" y="241" width="32" height="32" rx="6" fill="#C4C4C4"/>
<rect x="328" y="281" width="32" height="32" rx="6" fill="#C4C4C4"/>
<rect x="368" y="281" width="32" height="32" rx="6" fill="#C4C4C4"/>
</g>
<g opacity="0.05">
<rect x="88" y="241" width="32" height="32" rx="6" fill="#C4C4C4"/>
<rect x="128" y="241" width="32" height="32" rx="6" fill="#C4C4C4"/>
<rect x="88" y="281" width="32" height="32" rx="6" fill="#C4C4C4"/>
<rect x="128" y="281" width="32" height="32" rx="6" fill="#C4C4C4"/>
</g>
<g opacity="0.05">
<rect x="408" y="241" width="32" height="32" rx="6" fill="#C4C4C4"/>
<rect x="448" y="241" width="32" height="32" rx="6" fill="#C4C4C4"/>
<rect x="408" y="281" width="32" height="32" rx="6" fill="#C4C4C4"/>
<rect x="448" y="281" width="32" height="32" rx="6" fill="#C4C4C4"/>
</g>
<g opacity="0.05">
<rect x="168" y="241" width="32" height="32" rx="6" fill="#C4C4C4"/>
<rect x="208" y="241" width="32" height="32" rx="6" fill="#C4C4C4"/>
<rect x="168" y="281" width="32" height="32" rx="6" fill="#C4C4C4"/>
<rect x="208" y="281" width="32" height="32" rx="6" fill="#C4C4C4"/>
</g>
<g opacity="0.05">
<rect x="248" y="321" width="32" height="32" rx="6" fill="#C4C4C4"/>
<rect x="288" y="321" width="32" height="32" rx="6" fill="#C4C4C4"/>
<rect x="248" y="361" width="32" height="32" rx="6" fill="#C4C4C4"/>
<rect x="288" y="361" width="32" height="32" rx="6" fill="#C4C4C4"/>
</g>
<g opacity="0.05">
<rect x="8" y="321" width="32" height="32" rx="6" fill="#C4C4C4"/>
<rect x="48" y="321" width="32" height="32" rx="6" fill="#C4C4C4"/>
<rect x="8" y="361" width="32" height="32" rx="6" fill="#C4C4C4"/>
<rect x="48" y="361" width="32" height="32" rx="6" fill="#C4C4C4"/>
</g>
<g opacity="0.05">
<rect x="328" y="321" width="32" height="32" rx="6" fill="#C4C4C4"/>
<rect x="368" y="321" width="32" height="32" rx="6" fill="#C4C4C4"/>
<rect x="328" y="361" width="32" height="32" rx="6" fill="#C4C4C4"/>
<rect x="368" y="361" width="32" height="32" rx="6" fill="#C4C4C4"/>
</g>
<g opacity="0.05">
<rect x="88" y="321" width="32" height="32" rx="6" fill="#C4C4C4"/>
<rect x="128" y="321" width="32" height="32" rx="6" fill="#C4C4C4"/>
<rect x="88" y="361" width="32" height="32" rx="6" fill="#C4C4C4"/>
<rect x="128" y="361" width="32" height="32" rx="6" fill="#C4C4C4"/>
</g>
<g opacity="0.05">
<rect x="408" y="321" width="32" height="32" rx="6" fill="#C4C4C4"/>
<rect x="448" y="321" width="32" height="32" rx="6" fill="#C4C4C4"/>
<rect x="408" y="361" width="32" height="32" rx="6" fill="#C4C4C4"/>
<rect x="448" y="361" width="32" height="32" rx="6" fill="#C4C4C4"/>
</g>
<g opacity="0.05">
<rect x="168" y="321" width="32" height="32" rx="6" fill="#C4C4C4"/>
<rect x="208" y="321" width="32" height="32" rx="6" fill="#C4C4C4"/>
<rect x="168" y="361" width="32" height="32" rx="6" fill="#C4C4C4"/>
<rect x="208" y="361" width="32" height="32" rx="6" fill="#C4C4C4"/>
</g>
<g opacity="0.05">
<rect x="248" y="401" width="32" height="32" rx="6" fill="#C4C4C4"/>
<rect x="288" y="401" width="32" height="32" rx="6" fill="#C4C4C4"/>
<rect x="248" y="441" width="32" height="32" rx="6" fill="#C4C4C4"/>
<rect x="288" y="441" width="32" height="32" rx="6" fill="#C4C4C4"/>
</g>
<g opacity="0.05">
<rect x="8" y="401" width="32" height="32" rx="6" fill="#C4C4C4"/>
<rect x="48" y="401" width="32" height="32" rx="6" fill="#C4C4C4"/>
<rect x="8" y="441" width="32" height="32" rx="6" fill="#C4C4C4"/>
<rect x="48" y="441" width="32" height="32" rx="6" fill="#C4C4C4"/>
</g>
<g opacity="0.05">
<rect x="328" y="401" width="32" height="32" rx="6" fill="#C4C4C4"/>
<rect x="368" y="401" width="32" height="32" rx="6" fill="#C4C4C4"/>
<rect x="328" y="441" width="32" height="32" rx="6" fill="#C4C4C4"/>
<rect x="368" y="441" width="32" height="32" rx="6" fill="#C4C4C4"/>
</g>
<g opacity="0.05">
<rect x="88" y="401" width="32" height="32" rx="6" fill="#C4C4C4"/>
<rect x="128" y="401" width="32" height="32" rx="6" fill="#C4C4C4"/>
<rect x="88" y="441" width="32" height="32" rx="6" fill="#C4C4C4"/>
<rect x="128" y="441" width="32" height="32" rx="6" fill="#C4C4C4"/>
</g>
<g opacity="0.05">
<rect x="408" y="401" width="32" height="32" rx="6" fill="#C4C4C4"/>
<rect x="448" y="401" width="32" height="32" rx="6" fill="#C4C4C4"/>
<rect x="408" y="441" width="32" height="32" rx="6" fill="#C4C4C4"/>
<rect x="448" y="441" width="32" height="32" rx="6" fill="#C4C4C4"/>
</g>
<g opacity="0.05">
<rect x="168" y="401" width="32" height="32" rx="6" fill="#C4C4C4"/>
<rect x="208" y="401" width="32" height="32" rx="6" fill="#C4C4C4"/>
<rect x="168" y="441" width="32" height="32" rx="6" fill="#C4C4C4"/>
<rect x="208" y="441" width="32" height="32" rx="6" fill="#C4C4C4"/>
</g>
<rect y="238" width="480" height="258" fill="url(#paint1_linear)"/>
<g opacity="0.05">
<rect x="248" y="482" width="32" height="32" rx="6" fill="#C4C4C4"/>
<rect x="288" y="482" width="32" height="32" rx="6" fill="#C4C4C4"/>
<rect x="248" y="522" width="32" height="32" rx="6" fill="#C4C4C4"/>
<rect x="288" y="522" width="32" height="32" rx="6" fill="#C4C4C4"/>
</g>
<g opacity="0.05">
<rect x="8" y="482" width="32" height="32" rx="6" fill="#C4C4C4"/>
<rect x="48" y="482" width="32" height="32" rx="6" fill="#C4C4C4"/>
<rect x="8" y="522" width="32" height="32" rx="6" fill="#C4C4C4"/>
<rect x="48" y="522" width="32" height="32" rx="6" fill="#C4C4C4"/>
</g>
<g opacity="0.05">
<rect x="328" y="482" width="32" height="32" rx="6" fill="#C4C4C4"/>
<rect x="368" y="482" width="32" height="32" rx="6" fill="#C4C4C4"/>
<rect x="328" y="522" width="32" height="32" rx="6" fill="#C4C4C4"/>
<rect x="368" y="522" width="32" height="32" rx="6" fill="#C4C4C4"/>
</g>
<g opacity="0.05">
<rect x="88" y="482" width="32" height="32" rx="6" fill="#C4C4C4"/>
<rect x="128" y="482" width="32" height="32" rx="6" fill="#C4C4C4"/>
<rect x="88" y="522" width="32" height="32" rx="6" fill="#C4C4C4"/>
<rect x="128" y="522" width="32" height="32" rx="6" fill="#C4C4C4"/>
</g>
<g opacity="0.05">
<rect x="408" y="482" width="32" height="32" rx="6" fill="#C4C4C4"/>
<rect x="448" y="482" width="32" height="32" rx="6" fill="#C4C4C4"/>
<rect x="408" y="522" width="32" height="32" rx="6" fill="#C4C4C4"/>
<rect x="448" y="522" width="32" height="32" rx="6" fill="#C4C4C4"/>
</g>
<g opacity="0.05">
<rect x="168" y="482" width="32" height="32" rx="6" fill="#C4C4C4"/>
<rect x="208" y="482" width="32" height="32" rx="6" fill="#C4C4C4"/>
<rect x="168" y="522" width="32" height="32" rx="6" fill="#C4C4C4"/>
<rect x="208" y="522" width="32" height="32" rx="6" fill="#C4C4C4"/>
</g>
<g opacity="0.05">
<rect x="248" y="562" width="32" height="32" rx="6" fill="#C4C4C4"/>
<rect x="288" y="562" width="32" height="32" rx="6" fill="#C4C4C4"/>
<rect x="248" y="602" width="32" height="32" rx="6" fill="#C4C4C4"/>
<rect x="288" y="602" width="32" height="32" rx="6" fill="#C4C4C4"/>
</g>
<g opacity="0.05">
<rect x="8" y="562" width="32" height="32" rx="6" fill="#C4C4C4"/>
<rect x="48" y="562" width="32" height="32" rx="6" fill="#C4C4C4"/>
<rect x="8" y="602" width="32" height="32" rx="6" fill="#C4C4C4"/>
<rect x="48" y="602" width="32" height="32" rx="6" fill="#C4C4C4"/>
</g>
<g opacity="0.05">
<rect x="328" y="562" width="32" height="32" rx="6" fill="#C4C4C4"/>
<rect x="368" y="562" width="32" height="32" rx="6" fill="#C4C4C4"/>
<rect x="328" y="602" width="32" height="32" rx="6" fill="#C4C4C4"/>
<rect x="368" y="602" width="32" height="32" rx="6" fill="#C4C4C4"/>
</g>
<g opacity="0.05">
<rect x="88" y="562" width="32" height="32" rx="6" fill="#C4C4C4"/>
<rect x="128" y="562" width="32" height="32" rx="6" fill="#C4C4C4"/>
<rect x="88" y="602" width="32" height="32" rx="6" fill="#C4C4C4"/>
<rect x="128" y="602" width="32" height="32" rx="6" fill="#C4C4C4"/>
</g>
<g opacity="0.05">
<rect x="408" y="562" width="32" height="32" rx="6" fill="#C4C4C4"/>
<rect x="448" y="562" width="32" height="32" rx="6" fill="#C4C4C4"/>
<rect x="408" y="602" width="32" height="32" rx="6" fill="#C4C4C4"/>
<rect x="448" y="602" width="32" height="32" rx="6" fill="#C4C4C4"/>
</g>
<g opacity="0.05">
<rect x="168" y="562" width="32" height="32" rx="6" fill="#C4C4C4"/>
<rect x="208" y="562" width="32" height="32" rx="6" fill="#C4C4C4"/>
<rect x="168" y="602" width="32" height="32" rx="6" fill="#C4C4C4"/>
<rect x="208" y="602" width="32" height="32" rx="6" fill="#C4C4C4"/>
</g>
<g opacity="0.05">
<rect x="248" y="642" width="32" height="32" rx="6" fill="#C4C4C4"/>
<rect x="288" y="642" width="32" height="32" rx="6" fill="#C4C4C4"/>
<rect x="248" y="682" width="32" height="32" rx="6" fill="#C4C4C4"/>
<rect x="288" y="682" width="32" height="32" rx="6" fill="#C4C4C4"/>
</g>
<g opacity="0.05">
<rect x="8" y="642" width="32" height="32" rx="6" fill="#C4C4C4"/>
<rect x="48" y="642" width="32" height="32" rx="6" fill="#C4C4C4"/>
<rect x="8" y="682" width="32" height="32" rx="6" fill="#C4C4C4"/>
<rect x="48" y="682" width="32" height="32" rx="6" fill="#C4C4C4"/>
</g>
<g opacity="0.05">
<rect x="328" y="642" width="32" height="32" rx="6" fill="#C4C4C4"/>
<rect x="368" y="642" width="32" height="32" rx="6" fill="#C4C4C4"/>
<rect x="328" y="682" width="32" height="32" rx="6" fill="#C4C4C4"/>
<rect x="368" y="682" width="32" height="32" rx="6" fill="#C4C4C4"/>
</g>
<g opacity="0.05">
<rect x="88" y="642" width="32" height="32" rx="6" fill="#C4C4C4"/>
<rect x="128" y="642" width="32" height="32" rx="6" fill="#C4C4C4"/>
<rect x="88" y="682" width="32" height="32" rx="6" fill="#C4C4C4"/>
<rect x="128" y="682" width="32" height="32" rx="6" fill="#C4C4C4"/>
</g>
<g opacity="0.05">
<rect x="408" y="642" width="32" height="32" rx="6" fill="#C4C4C4"/>
<rect x="448" y="642" width="32" height="32" rx="6" fill="#C4C4C4"/>
<rect x="408" y="682" width="32" height="32" rx="6" fill="#C4C4C4"/>
<rect x="448" y="682" width="32" height="32" rx="6" fill="#C4C4C4"/>
</g>
<g opacity="0.05">
<rect x="168" y="642" width="32" height="32" rx="6" fill="#C4C4C4"/>
<rect x="208" y="642" width="32" height="32" rx="6" fill="#C4C4C4"/>
<rect x="168" y="682" width="32" height="32" rx="6" fill="#C4C4C4"/>
<rect x="208" y="682" width="32" height="32" rx="6" fill="#C4C4C4"/>
</g>
<rect y="479" width="480" height="258" fill="url(#paint2_linear)"/>
<defs>
<linearGradient id="paint0_linear" x1="2.39869e-07" y1="127.554" x2="469.5" y2="127.554" gradientUnits="userSpaceOnUse">
<stop stop-color="#31322F"/>
<stop offset="1" stop-color="#31322F" stop-opacity="0"/>
</linearGradient>
<linearGradient id="paint1_linear" x1="2.39869e-07" y1="368.554" x2="469.5" y2="368.554" gradientUnits="userSpaceOnUse">
<stop stop-color="#31322F"/>
<stop offset="1" stop-color="#31322F" stop-opacity="0"/>
</linearGradient>
<linearGradient id="paint2_linear" x1="2.39869e-07" y1="609.554" x2="469.5" y2="609.554" gradientUnits="userSpaceOnUse">
<stop stop-color="#31322F"/>
<stop offset="1" stop-color="#31322F" stop-opacity="0"/>
</linearGradient>
</defs>
</svg>
